:SAMPLES-PER-SECOND 24
:FULLY-SPECIFIED
:DEGREES
279
root  -2.58156 36.0522 22.1243 169.123 70.4017 174.751
RightUpLeg  -0.906439 -14.4045 -25.286
RightLeg  40.6946 8.9805 7.92739
RightFoot  -20.7018 1.38669 18.5168
RightToes  -1.74623e-010 0 -2.59999e-017
Spine  5.5043 2.60508 -1.21305
Spine1  17.4463 2.58422 -1.80275
HEad  -36.319 51.4518 -35.9441
LeftShoulder1  1.74018 -2.85267 -20.9796
LeftArm  5.64609 2.71346 -39.4339
LeftForeArm  19.995 -42.744 -9.00683
LeftHand  0.293424 6.61948 27.2924
RightShoulder  3.47352 5.76424 31.5939
RightArm  -10.0553 2.39603 36.8848
RightForeArm  143.491 65.2538 155.826
RightHand  1.26041 -13.8947 -17.4338
LeftUpLeg  -13.2259 11.9055 13.4466
LeftLeg  47.3114 -6.54551 -7.10889
LeftFoot  -18.2387 -0.61369 -11.9567
LeftToes  -6.27559e-011 -2.10356e-011 8.24929e-012
280
root  -2.2648 37.69 21.9166 170.175 71.1344 175.456
RightUpLeg  1.36989 -12.8111 -23.8315
RightLeg  33.1709 8.43295 5.68317
RightFoot  -11.3385 -0.0772015 20.333
RightToes  -1.74623e-010 0 -2.59999e-017
Spine  4.3914 3.12457 -0.185879
Spine1  16.5344 3.30383 -2.14717
HEad  -33.8935 51.9583 -34.5118
LeftShoulder1  1.75473 -2.74299 -21.7398
LeftArm  5.3274 7.06348 -43.1715
LeftForeArm  12.2426 -37.9036 -7.97046
LeftHand  0.301083 6.52388 30.1587
RightShoulder  3.59407 5.88805 32.3882
RightArm  -5.90691 -7.92959 38.8134
RightForeArm  145.485 66.3506 154.863
RightHand  1.71401 -15.3593 -19.9979
LeftUpLeg  -8.68099 11.326 13.0113
LeftLeg  37.8434 -6.23291 -4.78893
LeftFoot  -11.6565 0.033513 -13.2047
LeftToes  -6.27559e-011 -2.10356e-011 8.24929e-012
281
root  -1.92468 39.6104 21.7393 171.865 71.5651 176.308
RightUpLeg  3.41728 -12.2793 -22.0101
RightLeg  24.234 5.82694 2.66955
RightFoot  2.80966 -2.61151 20.9524
RightToes  -1.74623e-010 0 -2.59999e-017
Spine  2.85616 3.45809 0.655696
Spine1  14.9856 3.86271 -2.04185
HEad  -29.1164 53.0069 -30.5493
LeftShoulder1  1.76606 -2.58971 -22.6835
LeftArm  7.09572 12.2564 -43.9886
LeftForeArm  6.67682 -35.1762 -7.52323
LeftHand  0.0824512 5.97282 20.4116
RightShoulder  3.67326 5.9602 32.9336
RightArm  -1.58676 -17.8162 39.0198
RightForeArm  146.452 64.8639 156.529
RightHand  1.28787 -13.9191 -17.7075
LeftUpLeg  -5.19846 11.4902 12.6322
LeftLeg  28.0691 -6.15724 -3.19109
LeftFoot  1.44314 1.48274 -13.3087
LeftToes  -6.27559e-011 -2.10356e-011 8.24929e-012
282
root  -1.71924 41.0328 21.6597 174.171 71.0027 177.626
RightUpLeg  4.63939 -14.904 -20.7357
RightLeg  17.7107 2.44756 0.712735
RightFoot  14.1576 -4.5946 20.565
RightToes  -1.74623e-010 0 -2.59999e-017
Spine  1.48927 3.27144 1.43377
Spine1  13.4918 3.84014 -1.91592
HEad  -25.596 53.6341 -27.4422
LeftShoulder1  1.82164 -2.64599 -23.357
LeftArm  8.21549 16.9916 -42.8555
LeftForeArm  9.21716 -34.7451 -7.25541
LeftHand  -0.187394 3.17055 9.81113
RightShoulder  3.64091 5.96222 32.5858
RightArm  2.08263 -24.6264 38.4219
RightForeArm  147.788 62.2878 159.022
RightHand  0.50165 -11.351 -10.5101
LeftUpLeg  -4.57615 11.7488 12.4142
LeftLeg  22.093 -5.49029 -2.11766
LeftFoot  12.7902 2.68751 -12.8989
LeftToes  -6.27559e-011 -2.10356e-011 8.24929e-012
283
root  -1.66841 41.7155 21.653 174.954 70.4102 178.101
RightUpLeg  5.03966 -16.5002 -19.984
RightLeg  16.5169 1.5962 0.492213
RightFoot  15.1988 -4.37987 18.873
RightToes  -1.74623e-010 0 -2.59999e-017
Spine  0.958258 3.20244 2.0238
Spine1  13.1711 3.90378 -2.11456
HEad  -24.6768 53.349 -26.6757
LeftShoulder1  1.81836 -2.77536 -22.6598
LeftArm  9.28189 19.5966 -42.8713
LeftForeArm  12.8458 -35.0347 -7.11895
LeftHand  -0.23899 0.923815 6.16028
RightShoulder  3.37438 5.75569 30.5444
RightArm  4.7203 -27.8111 38.6331
RightForeArm  150.033 60.0664 160.952
RightHand  0.0908438 -8.22023 -5.25905
LeftUpLeg  -4.79179 10.4689 11.9522
LeftLeg  20.1321 -3.55175 -1.11096
LeftFoot  14.3003 2.46424 -11.1885
LeftToes  -6.27559e-011 -2.10356e-011 8.24929e-012
284
root  -1.75927 41.7458 21.7486 173.52 70.3224 177.194
RightUpLeg  4.8104 -15.3517 -19.4649
RightLeg  19.6956 4.66742 1.64267
RightFoot  11.6406 -3.40765 17.059
RightToes  -1.74623e-010 0 -2.59999e-017
Spine  1.66867 3.31945 2.12836
Spine1  13.9669 4.2341 -2.96372
HEad  -25.5347 52.7223 -27.5626
LeftShoulder1  1.8024 -2.877 -21.9057
LeftArm  10.496 19.4719 -42.6675
LeftForeArm  12.5024 -35.9225 -7.3862
LeftHand  -0.222164 1.77099 7.0094
RightShoulder  3.13921 5.52103 28.8546
RightArm  5.53418 -26.4454 37.8428
RightForeArm  150.281 58.4197 162.104
RightHand  -0.012738 -6.06156 -3.28296
LeftUpLeg  -4.86938 8.86052 11.344
LeftLeg  20.7332 -2.27557 -0.618464
LeftFoot  12.7992 1.61324 -7.91857
LeftToes  -6.27559e-011 -2.10356e-011 8.24929e-012
285
root  -1.91362 41.1227 21.9025 171.967 70.4169 176.314
RightUpLeg  4.06024 -13.4876 -19.0445
RightLeg  24.458 7.10616 3.30664
RightFoot  8.78381 -2.97899 17.0287
RightToes  -1.74623e-010 0 -2.59999e-017
Spine  2.9756 3.37203 2.22521
Spine1  14.2425 4.53659 -4.22676
HEad  -25.4693 52.5988 -27.6809
LeftShoulder1  1.83899 -3.01916 -21.8491
LeftArm  11.3523 18.2293 -41.1114
LeftForeArm  10.9287 -36.7383 -7.71358
LeftHand  -0.227672 2.96002 10.3539
RightShoulder  3.08286 5.46178 28.444
RightArm  3.74659 -22.0593 35.8416
RightForeArm  147.393 58.6126 161.729
RightHand  -0.0137163 -5.98282 -3.0559
LeftUpLeg  -5.37487 7.91817 11.371
LeftLeg  23.0471 -2.57451 -0.862198
LeftFoot  12.7036 1.5952 -7.7937
LeftToes  -6.27559e-011 -2.10356e-011 8.24929e-012
286
root  -2.03681 39.8441 22.0374 171.125 70.4639 175.509
RightUpLeg  2.69905 -12.9734 -19.111
RightLeg  29.9511 7.08439 4.15983
RightFoot  0.835822 -1.90846 17.8983
RightToes  -1.74623e-010 0 -2.59999e-017
Spine  3.83928 3.5082 1.90499
Spine1  13.2098 4.65128 -4.65674
HEad  -23.6179 52.5794 -25.9621
LeftShoulder1  1.82904 -3.15276 -21.0905
LeftArm  12.6496 16.9879 -40.2482
LeftForeArm  8.70146 -36.5934 -7.80766
LeftHand  -0.259081 3.25824 13.6729
RightShoulder  2.95989 5.35545 27.4347
RightArm  0.556555 -17.3351 34.6781
RightForeArm  144.171 60.8641 159.829
RightHand  0.0146188 -6.40877 -5.16925
LeftUpLeg  -6.97146 7.7515 11.86
LeftLeg  27.8929 -3.41331 -1.60906
LeftFoot  5.87236 1.66107 -11.2963
LeftToes  -6.27559e-011 -2.10356e-011 8.24929e-012
287
root  -2.20201 38.1063 22.1953 170.228 70.3029 174.307
RightUpLeg  1.07355 -13.4783 -19.9163
RightLeg  35.9512 7.02614 5.1994
RightFoot  -13.0725 0.17328 17.2597
RightToes  -1.74623e-010 0 -2.59999e-017
Spine  4.46172 3.60046 0.849995
Spine1  12.6984 4.47232 -4.14659
HEad  -24.2455 51.7453 -25.9294
LeftShoulder1  1.76019 -3.05045 -20.4246
LeftArm  13.8415 13.8566 -39.5158
LeftForeArm  6.44027 -36.0729 -7.79388
LeftHand  -0.174562 3.9185 12.9253
RightShoulder  2.81671 5.15368 26.5284
RightArm  -3.6762 -10.8162 33.117
RightForeArm  141.117 63.6631 157.156
RightHand  0.124482 -7.6352 -8.03405
LeftUpLeg  -10.309 8.67904 12.1058
LeftLeg  35.8966 -3.88613 -2.64014
LeftFoot  -7.1474 0.518922 -12.962
LeftToes  -6.27559e-011 -2.10356e-011 8.24929e-012
